<svg width="512" height="512" viewBox="0 0 512 512" fill="none" xmlns="http://www.w3.org/2000/svg">
<rect width="512" height="512" rx="100" fill="white"/>
<g clip-path="url(#clip0_36_3)">
<path d="M365.162 399.383C364.217 399.383 363.31 399.005 362.639 398.333C361.972 397.662 361.597 396.754 361.6 395.806L362.422 112.323C362.425 110.879 363.301 109.58 364.636 109.035L379.884 102.791C381.881 101.975 383.969 101.559 386.088 101.559C395.104 101.559 402.438 108.909 402.438 117.945V383.009C402.438 392.036 395.098 399.383 386.079 399.383H365.162Z" fill="#14213D"/>
<path d="M386.088 105.124C392.846 105.124 398.877 110.583 398.877 117.946V383.009C398.877 390.085 393.148 395.818 386.078 395.818H365.162L365.984 112.335L381.232 106.092C382.844 105.43 384.488 105.124 386.088 105.124ZM386.091 97.9946C383.506 97.9946 380.964 98.4989 378.539 99.4917L363.291 105.735C360.621 106.829 358.876 109.426 358.867 112.313L358.045 395.796C358.039 397.691 358.788 399.509 360.123 400.849C361.459 402.188 363.276 402.945 365.165 402.945H386.082C397.066 402.945 406 394 406 383.009V117.946C406 106.946 397.069 97.9946 386.091 97.9946Z" fill="#14213D"/>
<path d="M243.592 481.33C240.478 481.33 237.42 480.419 234.747 478.689L120.348 404.728C113.593 400.363 109.562 392.953 109.562 384.907V148.71C109.562 141.694 112.648 135.091 118.027 130.597L233.137 34.3939C236.135 31.8882 239.738 30.5645 243.558 30.5645C252.615 30.5645 259.984 37.9176 259.984 46.9602V464.937C259.984 473.98 252.63 481.33 243.592 481.33Z" fill="#14213D"/>
<path d="M243.558 34.1262C250.168 34.1262 256.422 39.3236 256.422 46.9604V464.937C256.422 472.458 250.253 477.768 243.592 477.768C241.268 477.768 238.884 477.122 236.68 475.698L122.281 401.737C116.572 398.047 113.123 391.711 113.123 384.91V148.713C113.123 142.775 115.756 137.143 120.31 133.336L135.07 121L172.113 90.0551L235.42 37.1331C237.899 35.0592 240.761 34.1262 243.558 34.1262ZM243.558 27C238.894 27 234.501 28.6106 230.854 31.6584L167.547 84.5804L130.507 115.522L115.743 127.861C109.552 133.036 106 140.635 106 148.71V384.907C106 394.17 110.642 402.699 118.414 407.723L232.816 481.683C236.066 483.782 239.791 484.895 243.592 484.895C254.592 484.895 263.545 475.944 263.545 464.937V46.9604C263.545 35.9543 254.58 27 243.558 27Z" fill="#14213D"/>
<path d="M279.011 61.7456V441.375" stroke="#FCA311" stroke-width="6" stroke-miterlimit="10" stroke-linecap="round"/>
<path d="M311.041 76.228V426.892" stroke="#FCA311" stroke-width="6" stroke-miterlimit="10" stroke-linecap="round"/>
<path d="M343.071 90.7109V412.41" stroke="#FCA311" stroke-width="6" stroke-miterlimit="10" stroke-linecap="round"/>
<path d="M172.113 90.0518V205.184L153.593 183.219L135.07 223.723V120.996L172.113 90.0518Z" fill="#FCA311"/>
</g>
<defs>
<clipPath id="clip0_36_3">
<rect width="300" height="457.895" fill="white" transform="translate(106 27)"/>
</clipPath>
</defs>
</svg>
