<svg width="430" height="120" viewBox="0 0 430 120" fill="none" xmlns="http://www.w3.org/2000/svg">
<g clip-path="url(#clip0_37_37)">
<path d="M47.1937 87.6204C47.0363 87.6204 46.8851 87.5568 46.7733 87.4439C46.662 87.331 46.5996 87.1784 46.6001 87.0188L46.7371 39.3481C46.7376 39.1053 46.8835 38.887 47.1061 38.7953L49.6474 37.7453C49.9802 37.608 50.3282 37.5381 50.6814 37.5381C52.1841 37.5381 53.4065 38.7741 53.4065 40.2936V84.867C53.4065 86.385 52.183 87.6204 50.6798 87.6204H47.1937Z" fill="#FCA311"/>
<path d="M50.6814 38.1374C51.8078 38.1374 52.8129 39.0553 52.8129 40.2934V84.8668C52.8129 86.0567 51.8582 87.0208 50.6799 87.0208H47.1937L47.3307 39.35L49.8721 38.3001C50.1408 38.1888 50.4148 38.1374 50.6814 38.1374ZM50.6819 36.9385C50.251 36.9385 49.8275 37.0233 49.4233 37.1902L46.882 38.2402C46.4369 38.4241 46.1461 38.8608 46.1446 39.3463L46.0076 87.0171C46.0065 87.3356 46.1314 87.6414 46.354 87.8667C46.5765 88.092 46.8794 88.2191 47.1943 88.2191H50.6804C52.5111 88.2191 54.0001 86.715 54.0001 84.8668V40.2934C54.0001 38.4437 52.5116 36.9385 50.6819 36.9385Z" fill="#FCA311"/>
<path d="M26.932 101.401C26.4129 101.401 25.9032 101.248 25.4576 100.957L6.39114 88.5193C5.26532 87.7853 4.59351 86.5392 4.59351 85.1861V45.4671C4.59351 44.2873 5.10786 43.1769 6.00432 42.4211L25.1894 26.2436C25.6891 25.8222 26.2895 25.5996 26.9262 25.5996C28.4357 25.5996 29.6638 26.8361 29.6638 28.3567V98.6441C29.6638 100.165 28.4383 101.401 26.932 101.401Z" fill="#FCA311"/>
<path d="M26.9263 26.1984C28.028 26.1984 29.0703 27.0723 29.0703 28.3566V98.644C29.0703 99.9086 28.0421 100.802 26.9321 100.802C26.5447 100.802 26.1474 100.693 25.78 100.453L6.71351 88.0162C5.76194 87.3955 5.18723 86.3302 5.18723 85.1865V45.4674C5.18723 44.4689 5.62601 43.5218 6.38495 42.8815L8.84496 40.807L15.0189 35.6034L25.5701 26.704C25.9831 26.3552 26.4602 26.1984 26.9263 26.1984ZM26.9263 25C26.149 25 25.4168 25.2708 24.809 25.7834L14.2578 34.6828L8.08444 39.8859L5.62391 41.9609C4.59204 42.8312 4 44.109 4 45.4669V85.1859C4 86.7436 4.77364 88.1778 6.06899 89.0227L25.136 101.46C25.6777 101.813 26.2986 102 26.9321 102C28.7654 102 30.2576 100.495 30.2576 98.644V28.3566C30.2576 26.5058 28.7633 25 26.9263 25Z" fill="#FCA311"/>
<path d="M33.8352 30.8428V94.6815" stroke="#E5E5E5" stroke-width="1.75" stroke-miterlimit="10" stroke-linecap="round"/>
<path d="M38.1733 33.2783V92.2463" stroke="#E5E5E5" stroke-width="1.75" stroke-miterlimit="10" stroke-linecap="round"/>
<path d="M42.5117 35.7139V89.811" stroke="#E5E5E5" stroke-width="1.75" stroke-miterlimit="10" stroke-linecap="round"/>
<path d="M15.0189 35.603V54.9638L11.9322 51.2702L8.84497 58.0813V40.8067L15.0189 35.603Z" fill="#E5E5E5"/>
</g>
<path d="M108.64 87.088V87.316H95.72C95.3653 86.1 94.9347 84.7067 94.428 83.136C93.972 81.5653 93.4653 79.8933 92.908 78.12H76.492C75.4787 81.6667 74.5413 84.732 73.68 87.316H60.76V87.164L76.34 39.208H93.06L108.64 87.088ZM84.548 47.872C84.0413 50.456 83.3067 53.5973 82.344 57.296C81.3813 60.9947 80.368 64.7693 79.304 68.62H90.172C89.0573 64.7693 88.0187 60.9947 87.056 57.296C86.0933 53.5973 85.3587 50.456 84.852 47.872H84.548ZM112.774 74.928C115.003 75.688 117.435 76.296 120.07 76.752C122.755 77.1573 125.415 77.36 128.05 77.36C131.647 77.36 134.307 77.208 136.03 76.904C137.803 76.5493 138.968 76.0173 139.526 75.308C140.083 74.5987 140.362 73.6867 140.362 72.572C140.362 71.6093 140.159 70.8493 139.754 70.292C139.348 69.7347 138.563 69.304 137.398 69C136.232 68.6453 134.51 68.3667 132.23 68.164L127.214 67.708C123.464 67.3533 120.5 66.568 118.322 65.352C116.194 64.136 114.674 62.5147 113.762 60.488C112.9 58.4107 112.47 55.928 112.47 53.04C112.47 49.5947 113.154 46.808 114.522 44.68C115.94 42.552 118.22 41.0067 121.362 40.044C124.503 39.0307 128.683 38.524 133.902 38.524C140.691 38.524 146.29 39.4107 150.698 41.184L150.47 51.52L150.242 51.824C145.226 50.0507 139.982 49.164 134.51 49.164C131.875 49.164 129.848 49.316 128.43 49.62C127.011 49.8733 126.023 50.304 125.466 50.912C124.908 51.52 124.63 52.3813 124.63 53.496C124.63 54.6107 124.807 55.4467 125.162 56.004C125.567 56.5613 126.352 56.992 127.518 57.296C128.683 57.5493 130.38 57.8027 132.61 58.056L137.398 58.588C141.451 59.044 144.567 59.8547 146.746 61.02C148.924 62.1853 150.419 63.756 151.23 65.732C152.091 67.6573 152.522 70.0133 152.522 72.8C152.522 76.1947 151.787 79.032 150.318 81.312C148.899 83.5413 146.568 85.2133 143.326 86.328C140.083 87.4427 135.751 88 130.33 88C126.783 88 123.591 87.8227 120.754 87.468C117.916 87.0627 115.155 86.5307 112.47 85.872V75.156L112.774 74.928ZM158.938 74.928C161.167 75.688 163.599 76.296 166.234 76.752C168.919 77.1573 171.579 77.36 174.214 77.36C177.811 77.36 180.471 77.208 182.194 76.904C183.967 76.5493 185.132 76.0173 185.69 75.308C186.247 74.5987 186.526 73.6867 186.526 72.572C186.526 71.6093 186.323 70.8493 185.918 70.292C185.512 69.7347 184.727 69.304 183.562 69C182.396 68.6453 180.674 68.3667 178.394 68.164L173.378 67.708C169.628 67.3533 166.664 66.568 164.486 65.352C162.358 64.136 160.838 62.5147 159.926 60.488C159.064 58.4107 158.634 55.928 158.634 53.04C158.634 49.5947 159.318 46.808 160.686 44.68C162.104 42.552 164.384 41.0067 167.526 40.044C170.667 39.0307 174.847 38.524 180.066 38.524C186.855 38.524 192.454 39.4107 196.862 41.184L196.634 51.52L196.406 51.824C191.39 50.0507 186.146 49.164 180.674 49.164C178.039 49.164 176.012 49.316 174.594 49.62C173.175 49.8733 172.187 50.304 171.63 50.912C171.072 51.52 170.794 52.3813 170.794 53.496C170.794 54.6107 170.971 55.4467 171.326 56.004C171.731 56.5613 172.516 56.992 173.682 57.296C174.847 57.5493 176.544 57.8027 178.774 58.056L183.562 58.588C187.615 59.044 190.731 59.8547 192.91 61.02C195.088 62.1853 196.583 63.756 197.394 65.732C198.255 67.6573 198.686 70.0133 198.686 72.8C198.686 76.1947 197.951 79.032 196.482 81.312C195.063 83.5413 192.732 85.2133 189.49 86.328C186.247 87.4427 181.915 88 176.494 88C172.947 88 169.755 87.8227 166.918 87.468C164.08 87.0627 161.319 86.5307 158.634 85.872V75.156L158.938 74.928ZM218.478 87.316H206.318V39.208H218.478V87.316ZM258.399 73.104C258.399 71.432 258.475 69.912 258.627 68.544L258.475 68.316C257.056 68.5187 255.511 68.6707 253.839 68.772C252.167 68.8227 250.621 68.8227 249.203 68.772V58.892L269.039 58.816V84.656C266.708 85.72 264.048 86.556 261.059 87.164C258.12 87.7213 254.371 88 249.811 88C243.731 88 238.968 87.1893 235.523 85.568C232.077 83.896 229.645 81.236 228.227 77.588C226.808 73.8893 226.099 68.9747 226.099 62.844C226.099 57.8787 226.656 53.8 227.771 50.608C228.936 47.416 230.608 44.9587 232.787 43.236C235.016 41.4627 237.727 40.2467 240.919 39.588C244.111 38.8787 247.759 38.524 251.863 38.524C254.295 38.524 256.727 38.6253 259.159 38.828C261.641 39.0307 264.099 39.4107 266.531 39.968V50L266.303 50.152C264.175 49.6453 262.047 49.2907 259.919 49.088C257.841 48.8853 255.739 48.784 253.611 48.784C250.52 48.784 247.809 49.1133 245.479 49.772C243.199 50.38 241.425 51.672 240.159 53.648C238.892 55.624 238.259 58.6893 238.259 62.844C238.259 66.948 238.588 70.0893 239.247 72.268C239.956 74.396 241.248 75.8653 243.123 76.676C245.048 77.436 247.784 77.816 251.331 77.816C251.787 77.816 252.496 77.816 253.459 77.816C254.421 77.7653 255.384 77.7147 256.347 77.664C257.309 77.6133 257.993 77.5373 258.399 77.436V73.104ZM308.579 39.208H320.739V87.316H308.655L294.975 66.948C293.911 65.3267 293.025 63.9587 292.315 62.844C291.606 61.7293 290.947 60.6147 290.339 59.5C289.731 58.3853 289.047 57.068 288.287 55.548L288.059 55.852C288.769 58.284 289.199 60.564 289.351 62.692C289.503 64.7693 289.579 66.796 289.579 68.772V87.316H277.419V39.208H289.503L303.183 59.576C304.247 61.1467 305.134 62.5147 305.843 63.68C306.553 64.7947 307.211 65.9093 307.819 67.024C308.427 68.1387 309.111 69.456 309.871 70.976L310.099 70.672C309.593 68.544 309.213 66.492 308.959 64.516C308.706 62.4893 308.579 60.488 308.579 58.512V39.208ZM329.892 87.316V39.208H365.612V49.088H342.052V58.208H362.496V68.088H342.052V77.436H365.612V87.316H329.892ZM370.157 63.224C370.157 57.0933 370.841 52.2293 372.209 48.632C373.628 45.0347 376.035 42.4507 379.429 40.88C382.875 39.3093 387.663 38.524 393.793 38.524C398.404 38.524 402.229 38.9547 405.269 39.816C408.309 40.6773 410.716 42.0707 412.489 43.996C414.263 45.9213 415.504 48.48 416.213 51.672C416.973 54.8133 417.353 58.664 417.353 63.224C417.353 67.8347 416.973 71.736 416.213 74.928C415.504 78.0693 414.263 80.6027 412.489 82.528C410.716 84.4533 408.309 85.8467 405.269 86.708C402.229 87.5693 398.404 88 393.793 88C389.183 88 385.357 87.5693 382.317 86.708C379.277 85.8467 376.871 84.4533 375.097 82.528C373.324 80.6027 372.057 78.0693 371.297 74.928C370.537 71.736 370.157 67.8347 370.157 63.224ZM393.793 77.36C397.036 77.36 399.468 76.9547 401.089 76.144C402.711 75.3333 403.8 73.9147 404.357 71.888C404.915 69.8107 405.193 66.9227 405.193 63.224C405.193 59.576 404.915 56.7387 404.357 54.712C403.8 52.6853 402.711 51.2667 401.089 50.456C399.468 49.5947 397.036 49.164 393.793 49.164C390.601 49.164 388.169 49.5947 386.497 50.456C384.876 51.2667 383.761 52.6853 383.153 54.712C382.596 56.7387 382.317 59.576 382.317 63.224C382.317 66.9227 382.596 69.8107 383.153 71.888C383.761 73.9147 384.876 75.3333 386.497 76.144C388.169 76.9547 390.601 77.36 393.793 77.36Z" fill="#FCA311"/>
<defs>
<clipPath id="clip0_37_37">
<rect width="50" height="77" fill="white" transform="translate(4 25)"/>
</clipPath>
</defs>
</svg>
