<svg width="500" height="500" viewBox="0 0 500 500" fill="none" xmlns="http://www.w3.org/2000/svg">
<path d="M184.617 144.471C186.099 149.021 169.142 158.625 146.743 165.922C124.343 173.219 104.983 175.446 103.501 170.897C102.019 166.347 118.976 156.743 141.375 149.446C163.774 142.149 183.135 139.921 184.617 144.471Z" fill="#1A3366"/>
<path d="M453.058 231.368C463.768 204.545 450.705 174.119 423.882 163.41C397.059 152.7 366.633 165.763 355.924 192.586C345.214 219.409 358.277 249.835 385.1 260.544C411.922 271.254 442.349 258.191 453.058 231.368Z" fill="#DAA100"/>
<path d="M448.402 231.368C459.111 204.545 446.049 174.119 419.226 163.41C392.403 152.7 361.977 165.763 351.267 192.586C340.558 219.409 353.62 249.835 380.443 260.544C407.266 271.254 437.692 258.191 448.402 231.368Z" fill="#F6DE2F"/>
<path d="M431.367 243.498C413.975 260.889 385.678 260.889 368.286 243.498C350.895 226.107 350.895 197.809 368.286 180.417C385.677 163.026 413.975 163.026 431.366 180.418C448.758 197.81 448.758 226.107 431.367 243.498Z" fill="#DEE9FF"/>
<path opacity="0.9" d="M431.384 180.418C413.992 163.027 385.695 163.027 368.304 180.417L431.385 243.498C448.776 226.107 448.776 197.81 431.384 180.418Z" fill="white"/>
<path d="M417.542 209.778H402.068V187.941C402.068 186.776 401.124 185.832 399.959 185.832C398.794 185.832 397.85 186.776 397.85 187.941V211.887C397.85 213.052 398.794 213.996 399.959 213.996H417.542C418.707 213.996 419.651 213.052 419.651 211.887C419.651 210.723 418.707 209.778 417.542 209.778Z" fill="#2E56C4"/>
<path d="M399.826 171.216C398.94 171.216 398.219 171.937 398.219 172.823V176.462C398.219 177.348 398.94 178.069 399.826 178.069C400.712 178.069 401.433 177.348 401.433 176.462V172.823C401.433 171.937 400.712 171.216 399.826 171.216Z" fill="#2E56C4"/>
<path d="M399.826 245.847C398.94 245.847 398.219 246.568 398.219 247.454V251.093C398.219 251.979 398.94 252.7 399.826 252.7C400.712 252.7 401.433 251.979 401.433 251.093V247.454C401.433 246.568 400.712 245.847 399.826 245.847Z" fill="#2E56C4"/>
<path d="M364.33 210.351H360.691C359.805 210.351 359.084 211.072 359.084 211.958C359.084 212.844 359.805 213.565 360.691 213.565H364.33C365.217 213.565 365.938 212.844 365.938 211.958C365.938 211.072 365.217 210.351 364.33 210.351Z" fill="#2E56C4"/>
<path d="M438.962 210.351H435.323C434.436 210.351 433.715 211.072 433.715 211.958C433.715 212.844 434.436 213.565 435.323 213.565H438.962C439.848 213.565 440.569 212.844 440.569 211.958C440.568 211.072 439.847 210.351 438.962 210.351Z" fill="#2E56C4"/>
<path d="M373.591 187.995C373.904 188.308 374.316 188.465 374.727 188.465C375.139 188.465 375.55 188.308 375.863 187.995C376.489 187.369 376.489 186.35 375.863 185.722L373.29 183.15C372.683 182.542 371.623 182.543 371.017 183.149C370.39 183.775 370.39 184.795 371.017 185.422L373.591 187.995Z" fill="#2E56C4"/>
<path d="M426.062 235.921C425.436 235.294 424.416 235.294 423.79 235.92C423.486 236.223 423.318 236.628 423.318 237.058C423.319 237.488 423.486 237.891 423.789 238.193L426.362 240.766C426.666 241.07 427.069 241.237 427.499 241.237C427.928 241.237 428.332 241.069 428.635 240.766C429.262 240.14 429.262 239.12 428.635 238.493L426.062 235.921Z" fill="#2E56C4"/>
<path d="M373.591 235.921L371.018 238.494C370.391 239.12 370.391 240.14 371.018 240.766C371.321 241.07 371.725 241.238 372.155 241.238C372.585 241.238 372.988 241.07 373.291 240.767L375.864 238.194C376.168 237.891 376.335 237.487 376.335 237.057C376.335 236.628 376.168 236.224 375.864 235.921C375.237 235.295 374.217 235.295 373.591 235.921Z" fill="#2E56C4"/>
<path d="M426.362 183.149L423.789 185.722C423.485 186.025 423.318 186.429 423.318 186.859C423.318 187.289 423.486 187.692 423.789 187.995C424.102 188.308 424.514 188.465 424.925 188.465C425.337 188.465 425.748 188.308 426.061 187.995L428.634 185.422C429.261 184.796 429.261 183.776 428.634 183.15C428.029 182.542 426.969 182.542 426.362 183.149Z" fill="#2E56C4"/>
<path d="M405.021 305.492C405.021 298.044 409.906 292.006 415.932 292.006H337.338C331.312 292.006 326.427 298.044 326.427 305.492C326.427 312.94 331.312 318.978 337.338 318.978H415.932C409.905 318.979 405.021 312.941 405.021 305.492Z" fill="#E263A2"/>
<path d="M415.931 292.006C409.905 292.006 405.02 298.044 405.02 305.492C405.02 312.94 409.905 318.978 415.931 318.978H457.809V315.481H453.709V295.503H457.809V292.006H415.931Z" fill="#C1327A"/>
<path d="M453.709 315.482H417.369C412.906 315.482 409.288 311.01 409.288 305.493C409.288 299.976 412.906 295.504 417.369 295.504H453.709V315.482Z" fill="#EAE8F9"/>
<path d="M424.679 305.493C424.679 299.976 428.297 295.504 432.76 295.504H417.37C412.907 295.504 409.289 299.976 409.289 305.493C409.289 311.01 412.907 315.482 417.37 315.482H432.761C428.298 315.482 424.679 311.009 424.679 305.493Z" fill="#ACABDF"/>
<path d="M405.021 332.465C405.021 325.017 409.906 318.979 415.932 318.979H337.338C331.312 318.979 326.427 325.017 326.427 332.465C326.427 339.913 331.312 345.951 337.338 345.951H415.932C409.905 345.951 405.021 339.913 405.021 332.465Z" fill="#F6DE2F"/>
<path d="M415.931 318.979C409.905 318.979 405.02 325.017 405.02 332.465C405.02 339.913 409.905 345.951 415.931 345.951H457.809V342.454H453.709V322.476H457.809V318.979H415.931Z" fill="#DAA100"/>
<path d="M453.709 342.454H417.369C412.906 342.454 409.288 337.982 409.288 332.465C409.288 326.948 412.906 322.476 417.369 322.476H453.709V342.454Z" fill="#EAE8F9"/>
<path d="M424.679 332.465C424.679 326.948 428.297 322.476 432.76 322.476H417.37C412.907 322.476 409.289 326.948 409.289 332.465C409.289 337.982 412.907 342.454 417.37 342.454H432.761C428.298 342.454 424.679 337.982 424.679 332.465Z" fill="#ACABDF"/>
<path d="M405.021 278.52C405.021 271.072 409.906 265.034 415.932 265.034H337.338C331.312 265.034 326.427 271.072 326.427 278.52C326.427 285.968 331.312 292.006 337.338 292.006H415.932C409.905 292.006 405.021 285.968 405.021 278.52Z" fill="#80AEFF"/>
<path d="M415.931 265.034C409.905 265.034 405.02 271.072 405.02 278.52C405.02 285.968 409.905 292.006 415.931 292.006H457.809V288.509H453.709V268.531H457.809V265.034H415.931Z" fill="#5285F2"/>
<path d="M453.709 288.509H417.369C412.906 288.509 409.288 284.037 409.288 278.52C409.288 273.003 412.906 268.531 417.369 268.531H453.709V288.509Z" fill="#EAE8F9"/>
<path d="M424.679 278.52C424.679 273.003 428.297 268.531 432.76 268.531H417.37C412.907 268.531 409.289 273.003 409.289 278.52C409.289 284.037 412.907 288.509 417.37 288.509H432.761C428.298 288.509 424.679 284.037 424.679 278.52Z" fill="#ACABDF"/>
<path d="M77.2949 398.596V402.083H251.393V398.596L164.344 387.286L77.2949 398.596Z" fill="#C1327A"/>
<path d="M255.995 398.596H72.6938V402.083H255.995V398.596Z" fill="#E263A2"/>
<path d="M164.344 386.098C160.755 376.987 150.389 372.066 140.601 371.775C130.813 371.484 121.343 374.872 112.04 377.929C102.737 380.986 92.9519 383.785 83.2759 382.284L99.7549 369.676C109.555 371.758 112.546 370.244 121.202 368.183C129.858 366.123 138.729 363.704 147.072 365.617C155.415 367.529 163.246 374.922 164.344 386.098Z" fill="#EAE8F9"/>
<path d="M164.344 386.098C167.933 376.987 178.299 372.066 188.087 371.775C197.875 371.484 207.344 374.872 216.647 377.929C225.95 380.986 235.735 383.785 245.411 382.284L228.932 369.676C219.132 371.758 216.141 370.244 207.485 368.183C198.829 366.123 189.958 363.704 181.615 365.617C173.273 367.529 165.442 374.922 164.344 386.098Z" fill="#EAE8F9"/>
<path d="M140.601 371.775C130.813 371.484 121.343 374.872 112.04 377.929C102.737 380.986 92.9519 383.785 83.2759 382.284L77.2949 398.597C77.2949 398.597 98.1919 397.224 108.181 396.404C118.17 395.583 128.339 394.674 138.849 394.752C149.359 394.83 160.49 396.151 164.344 398.597V386.099C160.755 376.987 150.389 372.066 140.601 371.775Z" fill="#C3C3ED"/>
<path d="M188.087 371.775C197.875 371.484 207.344 374.872 216.647 377.929C225.95 380.986 235.735 383.785 245.411 382.284L251.392 398.597C251.392 398.597 230.495 397.224 220.506 396.404C210.517 395.583 200.348 394.674 189.838 394.752C179.328 394.83 168.197 396.151 164.343 398.597V386.099C167.933 376.987 178.299 372.066 188.087 371.775Z" fill="#C3C3ED"/>
<path d="M168.207 390.029C169.206 387.915 170.938 386.172 172.855 384.79C174.795 383.417 176.952 382.373 179.181 381.577C183.644 379.971 188.396 379.298 193.113 379.279C197.826 379.294 202.5 379.886 207.059 380.849C211.625 381.799 216.089 383.068 220.51 384.5C215.895 383.922 211.335 383.101 206.778 382.466C202.221 381.843 197.664 381.359 193.114 381.381C188.583 381.359 184.044 381.912 179.683 383.133C177.512 383.762 175.375 384.551 173.403 385.658C171.425 386.749 169.605 388.163 168.207 390.029Z" fill="#ACABDF"/>
<path d="M170.997 392.771C173.172 391.206 175.683 390.123 178.24 389.284C180.812 388.467 183.462 387.895 186.143 387.555C191.518 386.848 196.949 387.071 202.283 387.665C207.62 388.304 212.873 389.334 218.072 390.476C223.275 391.609 228.446 392.773 233.695 393.765C228.35 393.644 223.03 392.92 217.771 392.089C212.507 391.275 207.284 390.343 202.041 389.753C199.423 389.427 196.798 389.212 194.173 389.107C191.544 388.982 188.925 389.002 186.307 389.182C183.691 389.375 181.078 389.71 178.508 390.276C175.933 390.824 173.403 391.61 170.997 392.771Z" fill="#ACABDF"/>
<path d="M160.481 390.029C159.482 387.915 157.75 386.172 155.833 384.79C153.893 383.417 151.736 382.373 149.507 381.577C145.044 379.971 140.292 379.298 135.574 379.279C130.861 379.294 126.187 379.886 121.628 380.849C117.062 381.799 112.598 383.068 108.177 384.5C112.792 383.922 117.352 383.101 121.909 382.466C126.466 381.843 131.023 381.359 135.573 381.381C140.104 381.359 144.643 381.912 149.004 383.133C151.175 383.762 153.312 384.551 155.284 385.658C157.263 386.749 159.083 388.163 160.481 390.029Z" fill="#ACABDF"/>
<path d="M157.691 392.771C155.516 391.206 153.005 390.123 150.448 389.284C147.876 388.467 145.226 387.895 142.545 387.555C137.17 386.848 131.739 387.071 126.405 387.665C121.068 388.304 115.815 389.334 110.616 390.476C105.413 391.609 100.242 392.773 94.9929 393.765C100.338 393.644 105.657 392.92 110.917 392.089C116.181 391.275 121.404 390.343 126.647 389.753C129.265 389.427 131.89 389.212 134.515 389.107C137.144 388.982 139.763 389.002 142.38 389.182C144.996 389.375 147.609 389.71 150.179 390.276C152.755 390.824 155.285 391.61 157.691 392.771Z" fill="#ACABDF"/>
<path d="M164.344 387.286C158.098 387.286 153.034 392.35 153.034 398.596H175.653C175.654 392.35 170.59 387.286 164.344 387.286Z" fill="#E263A2"/>
<path d="M372.008 307.596H133.442C129.659 307.596 126.592 304.529 126.592 300.746V151.046C126.592 147.263 129.659 144.197 133.442 144.197H372.008C375.791 144.197 378.857 147.264 378.857 151.046V300.746C378.857 304.529 375.791 307.596 372.008 307.596Z" fill="#ACACE4"/>
<path d="M366.304 307.596H127.737C123.954 307.596 120.888 304.529 120.888 300.746V151.046C120.888 147.263 123.955 144.197 127.737 144.197H366.303C370.086 144.197 373.152 147.264 373.152 151.046V300.746C373.153 304.529 370.087 307.596 366.304 307.596Z" fill="#3E3D3B"/>
<path d="M120.888 276.823V300.746C120.888 304.529 123.955 307.596 127.737 307.596H366.303C370.086 307.596 373.152 304.529 373.152 300.746V276.823H120.888Z" fill="#EAE8F9"/>
<path d="M366.216 150.399H127.824V269.834H366.216V150.399Z" fill="#81B1FF"/>
<path d="M283.094 307.596H210.947V336.491H283.094V307.596Z" fill="#ACABDF"/>
<path d="M310.844 345.951H183.197C183.197 340.726 187.433 336.49 192.658 336.49H301.384C306.608 336.491 310.844 340.726 310.844 345.951Z" fill="#EAE8F9"/>
<path d="M283.094 307.596H210.947V311.099H283.094V307.596Z" fill="#ACABDF"/>
<path d="M348.567 257.19H280.225C275.427 257.19 271.538 253.301 271.538 248.503V117.956C271.538 113.158 275.427 109.269 280.225 109.269H348.567C353.365 109.269 357.254 113.158 357.254 117.956V248.503C357.254 253.301 353.365 257.19 348.567 257.19Z" fill="#ACACE4"/>
<path d="M345.174 253.797H276.832C272.034 253.797 268.145 249.908 268.145 245.11V114.563C268.145 109.765 272.034 105.876 276.832 105.876H345.174C349.972 105.876 353.861 109.765 353.861 114.563V245.11C353.861 249.908 349.971 253.797 345.174 253.797Z" fill="#EAE8F9"/>
<path d="M290.085 129.179H279.487C278.418 129.179 277.551 128.312 277.551 127.243C277.551 126.174 278.418 125.307 279.487 125.307H290.085C291.154 125.307 292.021 126.174 292.021 127.243C292.021 128.312 291.154 129.179 290.085 129.179Z" fill="#C3C3ED"/>
<path d="M307.987 129.179H297.389C296.32 129.179 295.453 128.312 295.453 127.243C295.453 126.174 296.32 125.307 297.389 125.307H307.987C309.056 125.307 309.923 126.174 309.923 127.243C309.923 128.312 309.056 129.179 307.987 129.179Z" fill="#C3C3ED"/>
<path d="M325.888 129.179H315.29C314.221 129.179 313.354 128.312 313.354 127.243C313.354 126.174 314.221 125.307 315.29 125.307H325.888C326.957 125.307 327.824 126.174 327.824 127.243C327.824 128.312 326.958 129.179 325.888 129.179Z" fill="#C3C3ED"/>
<path d="M343.79 129.179H333.192C332.123 129.179 331.256 128.312 331.256 127.243C331.256 126.174 332.123 125.307 333.192 125.307H343.79C344.859 125.307 345.726 126.174 345.726 127.243C345.726 128.312 344.859 129.179 343.79 129.179Z" fill="#C3C3ED"/>
<path d="M307.053 140.632H279.488C278.419 140.632 277.552 139.765 277.552 138.696C277.552 137.627 278.419 136.76 279.488 136.76H307.053C308.122 136.76 308.989 137.627 308.989 138.696C308.989 139.765 308.122 140.632 307.053 140.632Z" fill="#C3C3ED"/>
<path d="M316.471 140.632H314.357C313.288 140.632 312.421 139.765 312.421 138.696C312.421 137.627 313.288 136.76 314.357 136.76H316.471C317.54 136.76 318.407 137.627 318.407 138.696C318.407 139.765 317.54 140.632 316.471 140.632Z" fill="#C3C3ED"/>
<path d="M325.888 140.632H323.774C322.705 140.632 321.838 139.765 321.838 138.696C321.838 137.627 322.705 136.76 323.774 136.76H325.888C326.957 136.76 327.824 137.627 327.824 138.696C327.824 139.765 326.958 140.632 325.888 140.632Z" fill="#C3C3ED"/>
<path d="M343.79 140.632H333.192C332.123 140.632 331.256 139.765 331.256 138.696C331.256 137.627 332.123 136.76 333.192 136.76H343.79C344.859 136.76 345.726 137.627 345.726 138.696C345.726 139.765 344.859 140.632 343.79 140.632Z" fill="#C3C3ED"/>
<path d="M290.085 152.086H279.487C278.418 152.086 277.551 151.219 277.551 150.15C277.551 149.081 278.418 148.214 279.487 148.214H290.085C291.154 148.214 292.021 149.081 292.021 150.15C292.021 151.219 291.154 152.086 290.085 152.086Z" fill="#C3C3ED"/>
<path d="M299.503 152.086H297.389C296.32 152.086 295.453 151.219 295.453 150.15C295.453 149.081 296.32 148.214 297.389 148.214H299.503C300.572 148.214 301.439 149.081 301.439 150.15C301.439 151.219 300.572 152.086 299.503 152.086Z" fill="#C3C3ED"/>
<path d="M308.921 152.086H306.807C305.738 152.086 304.871 151.219 304.871 150.15C304.871 149.081 305.738 148.214 306.807 148.214H308.921C309.99 148.214 310.857 149.081 310.857 150.15C310.857 151.219 309.99 152.086 308.921 152.086Z" fill="#C3C3ED"/>
<path d="M343.79 152.086H316.225C315.156 152.086 314.289 151.219 314.289 150.15C314.289 149.081 315.156 148.214 316.225 148.214H343.79C344.859 148.214 345.726 149.081 345.726 150.15C345.726 151.219 344.859 152.086 343.79 152.086Z" fill="#C3C3ED"/>
<path d="M333.192 182.573H343.79C344.859 182.573 345.726 183.44 345.726 184.509C345.726 185.578 344.859 186.445 343.79 186.445H333.192C332.123 186.445 331.256 185.578 331.256 184.509C331.256 183.44 332.123 182.573 333.192 182.573Z" fill="#C3C3ED"/>
<path d="M315.29 182.573H325.888C326.957 182.573 327.824 183.44 327.824 184.509C327.824 185.578 326.957 186.445 325.888 186.445H315.29C314.221 186.445 313.354 185.578 313.354 184.509C313.354 183.44 314.221 182.573 315.29 182.573Z" fill="#C3C3ED"/>
<path d="M297.389 182.573H307.987C309.056 182.573 309.923 183.44 309.923 184.509C309.923 185.578 309.056 186.445 307.987 186.445H297.389C296.32 186.445 295.453 185.578 295.453 184.509C295.453 183.44 296.32 182.573 297.389 182.573Z" fill="#C3C3ED"/>
<path d="M279.487 182.573H290.085C291.154 182.573 292.021 183.44 292.021 184.509C292.021 185.578 291.154 186.445 290.085 186.445H279.487C278.418 186.445 277.551 185.578 277.551 184.509C277.551 183.44 278.418 182.573 279.487 182.573Z" fill="#C3C3ED"/>
<path d="M316.224 171.12H343.789C344.858 171.12 345.725 171.987 345.725 173.056C345.725 174.125 344.858 174.992 343.789 174.992H316.224C315.155 174.992 314.288 174.125 314.288 173.056C314.288 171.987 315.155 171.12 316.224 171.12Z" fill="#C3C3ED"/>
<path d="M306.807 171.12H308.921C309.99 171.12 310.857 171.987 310.857 173.056C310.857 174.125 309.99 174.992 308.921 174.992H306.807C305.738 174.992 304.871 174.125 304.871 173.056C304.87 171.987 305.737 171.12 306.807 171.12Z" fill="#C3C3ED"/>
<path d="M297.389 171.12H299.503C300.572 171.12 301.439 171.987 301.439 173.056C301.439 174.125 300.572 174.992 299.503 174.992H297.389C296.32 174.992 295.453 174.125 295.453 173.056C295.453 171.987 296.32 171.12 297.389 171.12Z" fill="#C3C3ED"/>
<path d="M279.487 171.12H290.085C291.154 171.12 292.021 171.987 292.021 173.056C292.021 174.125 291.154 174.992 290.085 174.992H279.487C278.418 174.992 277.551 174.125 277.551 173.056C277.551 171.987 278.418 171.12 279.487 171.12Z" fill="#C3C3ED"/>
<path d="M333.192 159.667H343.79C344.859 159.667 345.726 160.534 345.726 161.603C345.726 162.672 344.859 163.539 343.79 163.539H333.192C332.123 163.539 331.256 162.672 331.256 161.603C331.256 160.533 332.123 159.667 333.192 159.667Z" fill="#C3C3ED"/>
<path d="M323.774 159.667H325.888C326.957 159.667 327.824 160.534 327.824 161.603C327.824 162.672 326.957 163.539 325.888 163.539H323.774C322.705 163.539 321.838 162.672 321.838 161.603C321.838 160.533 322.705 159.667 323.774 159.667Z" fill="#C3C3ED"/>
<path d="M314.356 159.667H316.47C317.539 159.667 318.406 160.534 318.406 161.603C318.406 162.672 317.539 163.539 316.47 163.539H314.356C313.287 163.539 312.42 162.672 312.42 161.603C312.42 160.533 313.287 159.667 314.356 159.667Z" fill="#C3C3ED"/>
<path d="M279.487 159.667H307.052C308.121 159.667 308.988 160.534 308.988 161.603C308.988 162.672 308.121 163.539 307.052 163.539H279.487C278.418 163.539 277.551 162.672 277.551 161.603C277.551 160.533 278.418 159.667 279.487 159.667Z" fill="#C3C3ED"/>
<path d="M290.085 197.899H279.487C278.418 197.899 277.551 197.032 277.551 195.963C277.551 194.894 278.418 194.027 279.487 194.027H290.085C291.154 194.027 292.021 194.894 292.021 195.963C292.021 197.032 291.154 197.899 290.085 197.899Z" fill="#C3C3ED"/>
<path d="M307.987 197.899H297.389C296.32 197.899 295.453 197.032 295.453 195.963C295.453 194.894 296.32 194.027 297.389 194.027H307.987C309.056 194.027 309.923 194.894 309.923 195.963C309.923 197.032 309.056 197.899 307.987 197.899Z" fill="#C3C3ED"/>
<path d="M325.888 197.899H315.29C314.221 197.899 313.354 197.032 313.354 195.963C313.354 194.894 314.221 194.027 315.29 194.027H325.888C326.957 194.027 327.824 194.894 327.824 195.963C327.824 197.032 326.958 197.899 325.888 197.899Z" fill="#C3C3ED"/>
<path d="M343.79 197.899H333.192C332.123 197.899 331.256 197.032 331.256 195.963C331.256 194.894 332.123 194.027 333.192 194.027H343.79C344.859 194.027 345.726 194.894 345.726 195.963C345.726 197.032 344.859 197.899 343.79 197.899Z" fill="#C3C3ED"/>
<path d="M326.564 244.149L324.561 239.054L319.485 241.106L326.552 224.662L333.631 227.705L326.564 244.149Z" fill="#E263A2"/>
<path d="M338.647 244.149L340.65 239.054L345.726 241.106L338.659 224.662L331.58 227.705L338.647 244.149Z" fill="#E263A2"/>
<path d="M332.606 232.74C338.508 232.74 343.293 227.955 343.293 222.053C343.293 216.151 338.508 211.366 332.606 211.366C326.704 211.366 321.919 216.151 321.919 222.053C321.919 227.955 326.704 232.74 332.606 232.74Z" fill="#C1327A"/>
<path d="M332.605 228.801C328.884 228.801 325.857 225.774 325.857 222.053C325.857 218.332 328.884 215.305 332.605 215.305C336.326 215.305 339.354 218.332 339.354 222.053C339.354 225.774 336.326 228.801 332.605 228.801Z" fill="#E263A2"/>
<path d="M141.375 149.446C163.775 142.149 183.135 139.921 184.617 144.471L174.707 114.052C173.225 109.502 153.865 111.729 131.465 119.027C109.065 126.325 92.1078 135.928 93.5908 140.478L103.501 170.897C102.018 166.347 118.975 156.743 141.375 149.446Z" fill="#2E56C4"/>
<path d="M219.282 100.589L122.513 91.5469L86.0759 123.7L49.6399 155.854L53.2279 156.344L53.3879 156.204L100.138 160.572L93.5919 140.478C92.1099 135.928 109.067 126.324 131.466 119.027C153.866 111.73 173.226 109.503 174.708 114.053L181.254 134.147L216.46 103.08L216.672 103.099L219.282 100.589Z" fill="#214AA5"/>
<path d="M174.345 113.43C174.249 113.314 174.137 113.204 174.01 113.099C173.969 113.065 173.933 113.03 173.889 112.998C173.714 112.869 173.518 112.75 173.296 112.64C173.255 112.62 173.206 112.602 173.163 112.583C172.97 112.495 172.761 112.414 172.537 112.339C172.459 112.313 172.379 112.288 172.297 112.263C172.056 112.191 171.799 112.126 171.526 112.068C171.475 112.057 171.428 112.044 171.376 112.033C171.047 111.968 170.693 111.913 170.321 111.867C170.23 111.856 170.133 111.847 170.04 111.837C169.738 111.804 169.423 111.777 169.095 111.755C168.985 111.748 168.876 111.74 168.763 111.734C168.334 111.712 167.89 111.696 167.421 111.693H167.419C166.953 111.69 166.462 111.699 165.958 111.714C165.827 111.718 165.693 111.723 165.56 111.729C165.14 111.745 164.709 111.768 164.265 111.796C164.154 111.803 164.046 111.809 163.934 111.817C163.378 111.856 162.805 111.904 162.215 111.962C162.127 111.97 162.035 111.981 161.946 111.99C161.437 112.041 160.916 112.1 160.383 112.165C160.227 112.184 160.071 112.203 159.913 112.223C159.338 112.296 158.752 112.376 158.152 112.464C158.096 112.472 158.043 112.479 157.987 112.487C157.321 112.586 156.638 112.696 155.942 112.813C155.796 112.838 155.647 112.864 155.5 112.89C154.93 112.988 154.35 113.093 153.762 113.203C153.601 113.233 153.441 113.263 153.279 113.293C152.547 113.433 151.805 113.58 151.048 113.738L160.958 144.157C174.092 141.419 183.594 141.337 184.615 144.471L174.705 114.053C174.648 113.878 174.555 113.716 174.446 113.56C174.417 113.515 174.38 113.473 174.345 113.43Z" fill="#164282"/>
<path d="M91.4819 200.379C89.9179 200.373 88.6539 199.1 88.6599 197.535L88.9679 118.555C88.9739 116.991 90.2469 115.727 91.8119 115.733C93.3759 115.739 94.6399 117.012 94.6339 118.577L94.3259 197.557C94.3189 199.122 93.0459 200.385 91.4819 200.379Z" fill="#EAE8F9"/>
<path d="M94.4549 215.72L88.3879 215.696C85.4639 215.685 83.4869 212.71 84.6079 210.01L90.0029 197.013L92.9869 197.025L98.2799 210.064C99.3799 212.773 97.3789 215.732 94.4549 215.72Z" fill="#EAE8F9"/>
<path d="M97.4069 197.903C97.3939 201.17 94.736 203.808 91.469 203.795C88.202 203.782 85.564 201.124 85.577 197.857C85.59 194.59 88.2479 191.952 91.5149 191.965C94.7809 191.977 97.4189 194.636 97.4069 197.903Z" fill="#F6DE2F"/>
<path d="M163.692 345.951H85.9309C81.1329 345.951 77.2439 342.062 77.2439 337.264V265.112C77.2439 260.314 81.1329 256.425 85.9309 256.425H163.692C168.49 256.425 172.379 260.314 172.379 265.112V337.264C172.379 342.062 168.49 345.951 163.692 345.951Z" fill="#C1327A"/>
<path d="M160.299 342.558H82.5378C77.7398 342.558 73.8508 338.669 73.8508 333.871V261.719C73.8508 256.921 77.7398 253.032 82.5378 253.032H160.299C165.097 253.032 168.986 256.921 168.986 261.719V333.871C168.986 338.668 165.096 342.558 160.299 342.558Z" fill="#E263A2"/>
<path d="M113.484 275.047L145.62 293.601C148.848 295.465 148.848 300.124 145.62 301.988L113.484 320.542C110.256 322.406 106.221 320.076 106.221 316.348V279.24C106.221 275.513 110.256 273.184 113.484 275.047Z" fill="#EAE8F9"/>
<path d="M224.542 184.15H143.096C142.027 184.15 141.16 183.283 141.16 182.214C141.16 181.145 142.027 180.278 143.096 180.278H224.542C225.611 180.278 226.478 181.145 226.478 182.214C226.478 183.283 225.611 184.15 224.542 184.15Z" fill="white"/>
<path d="M236.822 185.847C236.784 185.847 236.745 185.846 236.706 185.843C236.252 185.812 235.83 185.6 235.534 185.254L232.217 181.381C231.608 180.669 231.69 179.599 232.402 178.989C233.114 178.38 234.185 178.463 234.794 179.174L236.988 181.736L247.857 172.099C248.557 171.477 249.63 171.542 250.252 172.243C250.874 172.944 250.809 174.016 250.108 174.638L237.947 185.42C237.637 185.696 237.236 185.847 236.822 185.847Z" fill="#F6DE2F"/>
<path d="M224.542 201.353H143.096C142.027 201.353 141.16 200.486 141.16 199.417C141.16 198.348 142.027 197.481 143.096 197.481H224.542C225.611 197.481 226.478 198.348 226.478 199.417C226.478 200.486 225.611 201.353 224.542 201.353Z" fill="white"/>
<path d="M236.822 203.05C236.784 203.05 236.745 203.049 236.706 203.046C236.252 203.015 235.83 202.803 235.534 202.457L232.217 198.585C231.608 197.873 231.69 196.803 232.402 196.193C233.114 195.584 234.185 195.667 234.794 196.378L236.988 198.94L247.857 189.303C248.557 188.681 249.63 188.746 250.252 189.447C250.874 190.148 250.809 191.22 250.108 191.842L237.947 202.624C237.637 202.899 237.236 203.05 236.822 203.05Z" fill="#F6DE2F"/>
<path d="M224.542 218.557H143.096C142.027 218.557 141.16 217.69 141.16 216.621C141.16 215.552 142.027 214.685 143.096 214.685H224.542C225.611 214.685 226.478 215.552 226.478 216.621C226.478 217.69 225.611 218.557 224.542 218.557Z" fill="white"/>
<path d="M236.822 220.253C236.784 220.253 236.745 220.252 236.706 220.249C236.252 220.218 235.83 220.006 235.534 219.66L232.217 215.787C231.608 215.075 231.69 214.005 232.402 213.395C233.114 212.786 234.185 212.869 234.794 213.58L236.988 216.142L247.857 206.505C248.557 205.883 249.63 205.948 250.252 206.649C250.874 207.35 250.809 208.422 250.108 209.044L237.947 219.826C237.637 220.102 237.236 220.253 236.822 220.253Z" fill="#F6DE2F"/>
<path d="M224.542 235.759H143.096C142.027 235.759 141.16 234.892 141.16 233.823C141.16 232.754 142.027 231.887 143.096 231.887H224.542C225.611 231.887 226.478 232.754 226.478 233.823C226.478 234.892 225.611 235.759 224.542 235.759Z" fill="white"/>
<path d="M236.822 237.456C236.784 237.456 236.745 237.455 236.706 237.452C236.252 237.421 235.83 237.209 235.534 236.863L232.217 232.991C231.608 232.279 231.69 231.209 232.402 230.599C233.114 229.99 234.185 230.073 234.794 230.784L236.988 233.346L247.857 223.709C248.557 223.087 249.63 223.152 250.252 223.853C250.874 224.554 250.809 225.626 250.108 226.248L237.947 237.03C237.637 237.305 237.236 237.456 236.822 237.456Z" fill="#F6DE2F"/>
<path d="M387.523 103.939H381.701V98.1181C381.701 97.0491 380.834 96.1821 379.765 96.1821C378.696 96.1821 377.829 97.0491 377.829 98.1181V103.939H372.007C370.938 103.939 370.071 104.806 370.071 105.875C370.071 106.944 370.938 107.811 372.007 107.811H377.829V113.632C377.829 114.701 378.696 115.568 379.765 115.568C380.834 115.568 381.701 114.701 381.701 113.632V107.811H387.523C388.592 107.811 389.459 106.944 389.459 105.875C389.459 104.806 388.592 103.939 387.523 103.939Z" fill="#E263A2"/>
<path d="M67.0909 236.408H61.2689V230.586C61.2689 229.517 60.4019 228.65 59.3329 228.65C58.2639 228.65 57.3969 229.517 57.3969 230.586V236.408H51.5759C50.5069 236.408 49.6399 237.275 49.6399 238.344C49.6399 239.413 50.5069 240.28 51.5759 240.28H57.3969V246.101C57.3969 247.17 58.2639 248.037 59.3329 248.037C60.4019 248.037 61.2689 247.17 61.2689 246.101V240.28H67.0909C68.1599 240.28 69.0269 239.413 69.0269 238.344C69.0269 237.275 68.1599 236.408 67.0909 236.408Z" fill="#F6DE2F"/>
<path d="M328.347 369.821H322.525V364C322.525 362.931 321.658 362.064 320.589 362.064C319.52 362.064 318.653 362.931 318.653 364V369.822H312.831C311.762 369.822 310.895 370.689 310.895 371.758C310.895 372.827 311.762 373.694 312.831 373.694H318.653V379.515C318.653 380.584 319.52 381.451 320.589 381.451C321.658 381.451 322.525 380.584 322.525 379.515V373.694H328.347C329.416 373.694 330.283 372.827 330.283 371.758C330.283 370.688 329.416 369.821 328.347 369.821Z" fill="#81B1FF"/>
<path d="M400.167 128.082C400.167 129.158 399.295 130.031 398.218 130.031C397.142 130.031 396.269 129.159 396.269 128.082C396.269 127.005 397.141 126.133 398.218 126.133C399.295 126.133 400.167 127.006 400.167 128.082Z" fill="#81B1FF"/>
<path d="M41.7129 262.506C41.7129 263.582 40.8399 264.455 39.7639 264.455C38.6879 264.455 37.8149 263.583 37.8149 262.506C37.8149 261.43 38.6869 260.557 39.7639 260.557C40.8409 260.557 41.7129 261.43 41.7129 262.506Z" fill="#E263A2"/>
<path d="M285.043 362.064C285.043 363.14 284.171 364.013 283.094 364.013C282.018 364.013 281.145 363.141 281.145 362.064C281.145 360.988 282.017 360.115 283.094 360.115C284.17 360.115 285.043 360.987 285.043 362.064Z" fill="#F6DE2F"/>
<path d="M293.97 404.031C293.97 405.107 293.098 405.98 292.021 405.98C290.945 405.98 290.072 405.108 290.072 404.031C290.072 402.955 290.944 402.082 292.021 402.082C293.098 402.083 293.97 402.955 293.97 404.031Z" fill="#E263A2"/>
<path d="M426.212 91.5469C427.288 91.5469 428.161 90.6743 428.161 89.5979C428.161 88.5215 427.288 87.6489 426.212 87.6489C425.136 87.6489 424.263 88.5215 424.263 89.5979C424.263 90.6743 425.136 91.5469 426.212 91.5469Z" fill="#F6DE2F"/>
<path d="M50.264 188.875C50.264 189.951 49.391 190.824 48.315 190.824C47.239 190.824 46.366 189.952 46.366 188.875C46.366 187.799 47.239 186.926 48.315 186.926C49.391 186.926 50.264 187.799 50.264 188.875Z" fill="#81B1FF"/>
</svg>
